<?xml version="1.0" encoding="utf-8"?>
<!-- Generator: Adobe Illustrator 16.0.0, SVG Export Plug-In . SVG Version: 6.00 Build 0)  -->
<!DOCTYPE svg PUBLIC "-//W3C//DTD SVG 1.1//EN" "http://www.w3.org/Graphics/SVG/1.1/DTD/svg11.dtd">
<svg version="1.1" id="Layer_1" xmlns="http://www.w3.org/2000/svg" xmlns:xlink="http://www.w3.org/1999/xlink" x="0px" y="0px"
	 width="100px" height="100px" viewBox="0 0 100 100" enable-background="new 0 0 100 100" xml:space="preserve">
<g>
	<path fill="#FFFFFF" d="M88.619,8.908c0-2.298-1.709-4.165-3.82-4.165h-19.1c-2.111,0-3.818,1.867-3.818,4.165v20.818
		c0,2.3,1.707,4.164,3.818,4.164h19.1c2.111,0,3.82-1.864,3.82-4.164v-4.164l7.639,8.327V4.742l-7.639,8.328V8.908z M80.979,25.563
		H69.521V13.071h11.457V25.563z"/>
	<rect x="84.799" y="42.215" fill="#FFFFFF" width="7.64" height="29.146"/>
	<path fill="#FFFFFF" d="M54.242,13.07H16.045c-4.211,0-7.64,3.734-7.64,8.327V71.36h7.64V21.396h38.197V13.07z"/>
	<path fill="#FFFFFF" d="M58.061,79.688H42.782v-4.163H4.586v12.492c0,4.591,3.428,8.327,7.64,8.327h76.394
		c4.212,0,7.639-3.736,7.639-8.327V75.524H58.061V79.688z M12.226,88.017v-4.163h26.737v4.163H12.226z M88.619,88.017H61.881v-4.163
		h26.738V88.017z"/>
	<path fill="#FFFFFF" d="M23.685,63.034v8.326h30.558v-8.326c0-4.6-3.421-8.326-7.641-8.326H31.323
		C27.105,54.708,23.685,58.435,23.685,63.034z"/>
	<ellipse fill="#FFFFFF" cx="38.962" cy="42.215" rx="7.639" ry="8.327"/>
</g>
</svg>
