<?xml version="1.0" encoding="utf-8"?>
<!-- Generator: Adobe Illustrator 16.0.0, SVG Export Plug-In . SVG Version: 6.00 Build 0)  -->
<!DOCTYPE svg PUBLIC "-//W3C//DTD SVG 1.1//EN" "http://www.w3.org/Graphics/SVG/1.1/DTD/svg11.dtd">
<svg version="1.1" id="Layer_1" xmlns="http://www.w3.org/2000/svg" xmlns:xlink="http://www.w3.org/1999/xlink" x="0px" y="0px"
	 width="100px" height="100px" viewBox="0 0 100 100" enable-background="new 0 0 100 100" xml:space="preserve">
<g>
	<path fill="#FFFFFF" d="M89.555,7.634c0-2.556-1.77-4.633-3.955-4.633H65.822c-2.187,0-3.956,2.077-3.956,4.633v23.169
		c0,2.559,1.77,4.633,3.956,4.633H85.6c2.186,0,3.955-2.075,3.955-4.633v-4.634l7.91,9.268V2.999l-7.91,9.268V7.634z M81.643,26.169
		H69.777V12.269h11.865V26.169z"/>
	<path fill="#FFFFFF" d="M14.402,86.405v9.268h23.732v-9.268c0-5.118-3.542-9.268-7.911-9.268h-7.911
		C17.944,77.138,14.402,81.287,14.402,86.405z"/>
	<ellipse fill="#FFFFFF" cx="26.268" cy="63.237" rx="7.911" ry="9.268"/>
	<path fill="#FFFFFF" d="M57.911,77.138H50c-4.369,0-7.911,4.149-7.911,9.268v9.268h23.733v-9.268
		C65.822,81.287,62.28,77.138,57.911,77.138z"/>
	<ellipse fill="#FFFFFF" cx="53.956" cy="63.237" rx="7.911" ry="9.268"/>
	<polygon fill="#FFFFFF" points="10.447,26.167 53.948,26.167 53.948,16.899 2.536,16.899 2.536,86.405 10.447,86.405 	"/>
	<polygon fill="#FFFFFF" points="89.555,77.138 69.777,77.138 69.777,86.405 97.465,86.405 97.465,44.703 89.555,44.703 	"/>
</g>
</svg>
