<?xml version="1.0" encoding="utf-8"?>
<!-- Generator: Adobe Illustrator 16.0.0, SVG Export Plug-In . SVG Version: 6.00 Build 0)  -->
<!DOCTYPE svg PUBLIC "-//W3C//DTD SVG 1.1//EN" "http://www.w3.org/Graphics/SVG/1.1/DTD/svg11.dtd">
<svg version="1.1" id="Layer_1" xmlns="http://www.w3.org/2000/svg" xmlns:xlink="http://www.w3.org/1999/xlink" x="0px" y="0px"
	 width="100px" height="100px" viewBox="0 0 100 100" enable-background="new 0 0 100 100" xml:space="preserve">
<g>
	<path fill="#FFFFFF" d="M94.368,50.712v-3.838c0-23.29-19.443-42.238-43.343-42.238c-23.9,0-43.344,18.948-43.344,42.238v3.838
		h7.881v-3.838c0-19.055,15.907-34.558,35.463-34.558c19.555,0,35.463,15.503,35.463,34.558v3.838H94.368z"/>
	<path fill="#FFFFFF" d="M11.623,85.272h7.88c4.345,0,7.881-3.446,7.881-7.681V58.394c0-4.235-3.536-7.68-7.881-7.68h-7.88
		c-4.344,0-7.881,3.444-7.881,7.68v19.198C3.742,81.826,7.278,85.272,11.623,85.272z M11.623,58.394h7.88l0.004,19.198h-7.884
		V58.394z"/>
	<path fill="#FFFFFF" d="M90.429,50.714h-7.882c-4.344,0-7.88,3.444-7.88,7.68v19.198c0,4.234,3.536,7.681,7.88,7.681v3.84H54.966
		c0,4.232,3.535,7.679,7.881,7.679h19.7c4.345,0,7.882-3.446,7.882-7.679v-3.84c4.344,0,7.88-3.446,7.88-7.681V58.394
		C98.309,54.158,94.772,50.714,90.429,50.714z M82.547,77.592V58.394h7.882l0.003,19.198H82.547z"/>
	<path fill="#FFFFFF" d="M74.667,46.875h7.88c0-16.938-14.141-30.718-31.521-30.718c-17.381,0-31.523,13.78-31.523,30.718h7.881
		c0-12.705,10.605-23.039,23.642-23.039S74.667,34.17,74.667,46.875z"/>
</g>
</svg>
