<?xml version="1.0" encoding="utf-8"?>
<!-- Generator: Adobe Illustrator 16.0.0, SVG Export Plug-In . SVG Version: 6.00 Build 0)  -->
<!DOCTYPE svg PUBLIC "-//W3C//DTD SVG 1.1//EN" "http://www.w3.org/Graphics/SVG/1.1/DTD/svg11.dtd">
<svg version="1.1" id="Layer_1" xmlns="http://www.w3.org/2000/svg" xmlns:xlink="http://www.w3.org/1999/xlink" x="0px" y="0px"
	 width="100px" height="100px" viewBox="0 0 100 100" enable-background="new 0 0 100 100" xml:space="preserve">
<g>
	<polygon fill="#FFFFFF" points="50,31.89 50,35.554 58.114,35.554 58.114,26.712 39.507,9.909 5.368,9.909 5.368,68.532 
		37.828,68.532 37.828,61.204 13.482,61.204 13.482,17.237 33.77,17.237 33.77,31.89 	"/>
	<path fill="#FFFFFF" d="M94.632,56.025L76.024,39.223h-34.14v58.623h52.747V56.025z M50,90.518V46.55h20.287v14.654h16.23v29.313
		H50z"/>
</g>
<path fill="#FFFFFF" d="M74.303,19.812c-4.076-4.436-12.357-3.745-18.083,1.512l3.136,3.416c3.369-3.093,8.367-3.574,10.704-1.033
	c1.698,1.852,1.829,4.661,0.644,7.212l-4.771,0.2l2.581,2.812l3.137,3.416l0.553,0.602l8.095-7.431l-4.243,0.177
	C77.394,26.748,76.887,22.627,74.303,19.812z"/>
<path fill="#FFFFFF" d="M24.48,73.613l-3.479-3.266l-0.615-0.578l-7.208,7.683l4.185-0.338c-0.897,3.965,0.055,8.027,2.924,10.72
	c4.523,4.244,12.655,3.239,17.752-2.195l-3.479-3.265c-3,3.196-7.903,3.865-10.495,1.436c-1.884-1.77-2.322-4.549-1.422-7.126
	l4.705-0.382L24.48,73.613z"/>
</svg>
