<?xml version="1.0" encoding="utf-8"?>
<!-- Generator: Adobe Illustrator 16.0.0, SVG Export Plug-In . SVG Version: 6.00 Build 0)  -->
<!DOCTYPE svg PUBLIC "-//W3C//DTD SVG 1.1//EN" "http://www.w3.org/Graphics/SVG/1.1/DTD/svg11.dtd">
<svg version="1.1" id="Layer_1" xmlns="http://www.w3.org/2000/svg" xmlns:xlink="http://www.w3.org/1999/xlink" x="0px" y="0px"
	 width="100px" height="100px" viewBox="0 0 100 100" enable-background="new 0 0 100 100" xml:space="preserve">
<g>
	<path fill="#FFFFFF" d="M82.613,67.31c0-4.293-3.253-7.78-7.248-7.78H50c-3.995,0-7.248,3.487-7.248,7.78v23.34
		c0,4.289,3.252,7.78,7.248,7.78h25.365c3.995,0,7.248-3.491,7.248-7.78v-4.398l10.871,7.779V63.936l-10.871,7.773V67.31z
		 M75.37,90.649H50V67.31h25.365v18.933h0.005V90.649z"/>
	<path fill="#FFFFFF" d="M37.317,5.069c-8.991,0-16.306,7.852-16.306,17.505c0,9.654,7.314,17.505,16.306,17.505
		c8.993,0,16.306-7.851,16.306-17.505C53.623,12.921,46.31,5.069,37.317,5.069z M37.317,32.299c-4.996,0-9.059-4.363-9.059-9.725
		c0-5.362,4.063-9.726,9.059-9.726c4.998,0,9.06,4.363,9.06,9.726C46.377,27.936,42.314,32.299,37.317,32.299z"/>
	<path fill="#FFFFFF" d="M39.129,67.31H13.763v-3.89c0-6.436,4.877-11.671,10.871-11.671H50c3.199,0,6.056,1.52,8.047,3.891h8.535
		C63.779,48.782,57.41,43.969,50,43.969H24.634c-9.989,0-18.118,8.726-18.118,19.451v11.669h32.613V67.31z"/>
</g>
</svg>
