<?xml version="1.0" encoding="utf-8"?>
<!-- Generator: Adobe Illustrator 16.0.0, SVG Export Plug-In . SVG Version: 6.00 Build 0)  -->
<!DOCTYPE svg PUBLIC "-//W3C//DTD SVG 1.1//EN" "http://www.w3.org/Graphics/SVG/1.1/DTD/svg11.dtd">
<svg version="1.1" id="Layer_1" xmlns="http://www.w3.org/2000/svg" xmlns:xlink="http://www.w3.org/1999/xlink" x="0px" y="0px"
	 width="100px" height="100px" viewBox="0 0 100 100" enable-background="new 0 0 100 100" xml:space="preserve">
<g>
	<path fill="#FFFFFF" d="M16.92,80.379h47.878c7.92,0,14.363-5.111,14.363-11.393v-6.021l19.15,15.189V21.846l-19.15,15.189v-6.022
		c0-6.282-6.443-11.393-14.363-11.393H16.92c-7.92,0-14.363,5.11-14.363,11.393v37.973C2.557,75.268,9,80.379,16.92,80.379z
		 M88.735,37.583v19.641l-9.574-7.596v-4.45L88.735,37.583z M12.132,28.417c0-2.094,2.147-3.798,4.788-3.798h47.878
		c2.642,0,4.788,1.704,4.788,3.798V66.39c0,2.093-2.146,3.798-4.788,3.798H16.92c-2.641,0-4.788-1.705-4.788-3.798V28.417z"/>
</g>
</svg>
