<?xml version="1.0" encoding="utf-8"?>
<!-- Generator: Adobe Illustrator 16.0.0, SVG Export Plug-In . SVG Version: 6.00 Build 0)  -->
<!DOCTYPE svg PUBLIC "-//W3C//DTD SVG 1.1//EN" "http://www.w3.org/Graphics/SVG/1.1/DTD/svg11.dtd">
<svg version="1.1" id="Layer_1" xmlns="http://www.w3.org/2000/svg" xmlns:xlink="http://www.w3.org/1999/xlink" x="0px" y="0px"
	 width="100px" height="100px" viewBox="0 0 100 100" enable-background="new 0 0 100 100" xml:space="preserve">
<g>
	<path fill="#FFFFFF" d="M10.878,90.777h76.616c4.225,0,7.662-3.66,7.662-8.156V70.389H56.848v4.076H41.524v-4.076H3.216v12.232
		C3.216,87.117,6.655,90.777,10.878,90.777z M87.494,82.621H60.68v-4.078h26.814V82.621z M10.878,78.543h26.815v4.078H10.878V78.543
		z"/>
	<path fill="#FFFFFF" d="M91.324,66.311V17.378c0-4.5-3.438-8.156-7.66-8.156H14.709c-4.224,0-7.662,3.655-7.662,8.156v48.932h7.662
		V17.378h68.955v48.932H91.324z"/>
</g>
<path fill="#FFFFFF" d="M61.803,39.757l10.04-11.272l-13.25-7.408l-2.941,3.406l6.305,3.522
	c-18.216,4.597-29.36,22.918-30.288,35.494l4.896-0.033c0.83-11.18,10.539-27.397,26.28-31.492l-4.926,5.532L61.803,39.757z"/>
</svg>
