<?xml version="1.0" encoding="utf-8"?>
<!-- Generator: Adobe Illustrator 16.0.0, SVG Export Plug-In . SVG Version: 6.00 Build 0)  -->
<!DOCTYPE svg PUBLIC "-//W3C//DTD SVG 1.1//EN" "http://www.w3.org/Graphics/SVG/1.1/DTD/svg11.dtd">
<svg version="1.1" id="Layer_1" xmlns="http://www.w3.org/2000/svg" xmlns:xlink="http://www.w3.org/1999/xlink" x="0px" y="0px"
	 width="100px" height="100px" viewBox="0 0 100 100" enable-background="new 0 0 100 100" xml:space="preserve">
<g>
	<path fill="#FFFFFF" d="M85.692,29.819c4.29,0,7.768-3.242,7.768-7.239c0-4.002-3.478-7.241-7.768-7.241s-7.768,3.239-7.768,7.241
		C77.925,26.577,81.402,29.819,85.692,29.819z"/>
	<path fill="#FFFFFF" d="M97.344,40.68c0-3.993-3.485-7.241-7.768-7.241H79.548L65.136,20.02l-5.491,5.123l14.397,13.404V51.54v7.24
		v21.721h7.767V58.78h3.884v21.721h7.768V58.78h3.884V40.68z"/>
	<path fill="#FFFFFF" d="M27.437,87.741c0-3.999-3.478-7.24-7.768-7.24h-7.768c-4.29,0-7.768,3.241-7.768,7.24v7.24h23.303V87.741z"
		/>
	<ellipse fill="#FFFFFF" cx="15.785" cy="69.641" rx="7.768" ry="7.24"/>
	<path fill="#FFFFFF" d="M31.32,87.741v7.24h23.303v-7.24c0-3.999-3.479-7.24-7.768-7.24h-7.768
		C34.798,80.501,31.32,83.742,31.32,87.741z"/>
	<ellipse fill="#FFFFFF" cx="42.971" cy="69.641" rx="7.768" ry="7.24"/>
	<rect x="58.507" y="84.122" fill="#FFFFFF" width="38.837" height="7.24"/>
	<polygon fill="#FFFFFF" points="66.274,51.54 11.901,51.54 11.901,15.339 70.158,15.339 70.158,8.099 4.134,8.099 4.134,58.78 
		66.274,58.78 	"/>
</g>
</svg>
