<?xml version="1.0" encoding="utf-8"?>
<!-- Generator: Adobe Illustrator 16.0.0, SVG Export Plug-In . SVG Version: 6.00 Build 0)  -->
<!DOCTYPE svg PUBLIC "-//W3C//DTD SVG 1.1//EN" "http://www.w3.org/Graphics/SVG/1.1/DTD/svg11.dtd">
<svg version="1.1" id="Layer_1" xmlns="http://www.w3.org/2000/svg" xmlns:xlink="http://www.w3.org/1999/xlink" x="0px" y="0px"
	 width="1500px" height="800px" viewBox="0 0 1500 800" enable-background="new 0 0 1500 800" xml:space="preserve">
<linearGradient id="SVGID_1_" gradientUnits="userSpaceOnUse" x1="356.8398" y1="344.4365" x2="716.9692" y2="344.4365">
	<stop  offset="0" style="stop-color:#00AEEF"/>
	<stop  offset="0.2145" style="stop-color:#0094D3"/>
	<stop  offset="0.6768" style="stop-color:#00609A"/>
	<stop  offset="1" style="stop-color:#003E76"/>
</linearGradient>
<polygon fill="url(#SVGID_1_)" points="629.804,160.066 543.059,421.036 456.396,160.066 349.196,160.066 379.655,235.449 
	426.159,235.237 437.754,253.92 449.407,272.713 438.034,291.614 426.771,310.618 410.087,310.722 498.285,528.807 589.11,528.807 
	736.923,160.066 "/>
<linearGradient id="SVGID_2_" gradientUnits="userSpaceOnUse" x1="356.8389" y1="349.6914" x2="716.9687" y2="349.6914">
	<stop  offset="0" style="stop-color:#00AEEF"/>
	<stop  offset="0.2145" style="stop-color:#0094D3"/>
	<stop  offset="0.6768" style="stop-color:#00609A"/>
	<stop  offset="1" style="stop-color:#003E76"/>
</linearGradient>
<path fill-rule="evenodd" clip-rule="evenodd" fill="url(#SVGID_2_)" d="M346.511,311.576l-6.233,10.404
	c-7.824,10.933-20.93,18.157-35.856,18.261c-15.453,0.211-29.093-7.219-37.14-18.473l-5.729-9.241l-22.86,0.217l-23.031,0.213
	l-11.229,19.004l-11.264,18.896l11.682,18.689l11.596,18.793l22.945-0.322l22.888-0.211l5.362-9.024l0.144,0.103
	c7.794-11.464,21.348-19.216,36.83-19.319c15.734-0.212,29.624,7.54,37.563,19.216l5.059,8.176l117.291-0.532l11.206-18.896
	l11.315-19.005l-11.624-18.689l-11.682-18.792L346.511,311.576z"/>
<linearGradient id="SVGID_3_" gradientUnits="userSpaceOnUse" x1="356.8433" y1="349.6914" x2="716.9794" y2="349.6914">
	<stop  offset="0" style="stop-color:#00AEEF"/>
	<stop  offset="0.2145" style="stop-color:#0094D3"/>
	<stop  offset="0.6768" style="stop-color:#00609A"/>
	<stop  offset="1" style="stop-color:#003E76"/>
</linearGradient>
<polygon fill-rule="evenodd" clip-rule="evenodd" fill="url(#SVGID_3_)" points="95.55,350.009 101.979,339.181 108.405,328.352 
	121.483,328.243 134.567,328.14 141.218,338.757 147.84,349.476 141.412,360.201 134.985,371.03 121.907,371.243 108.88,371.243 
	102.202,360.625 "/>
<linearGradient id="SVGID_4_" gradientUnits="userSpaceOnUse" x1="356.8389" y1="198.5513" x2="716.9675" y2="198.5513">
	<stop  offset="0" style="stop-color:#00AEEF"/>
	<stop  offset="0.2145" style="stop-color:#0094D3"/>
	<stop  offset="0.6768" style="stop-color:#00609A"/>
	<stop  offset="1" style="stop-color:#003E76"/>
</linearGradient>
<path fill-rule="evenodd" clip-rule="evenodd" fill="url(#SVGID_4_)" d="M367.082,160.17l-22.946,0.32l-6.146,10.405
	c-7.996,10.828-20.987,18.048-35.943,18.26c-15.453,0.108-29.149-7.328-37.14-18.581l-5.729-9.235l-22.917,0.211l-22.973,0.212
	l-11.208,19.005l-11.286,18.901l11.624,18.792l11.653,18.684l22.887-0.212l22.917-0.211l5.42-9.024l0.114,0.108
	c7.824-11.469,21.32-19.221,36.807-19.434c15.757-0.103,29.59,7.54,37.528,19.217l5.06,8.176l22.974-0.212l56.56-0.315l11.32-19.005
	l11.263-18.901l-11.601-18.684l-11.681-18.689L367.082,160.17z"/>
<linearGradient id="SVGID_5_" gradientUnits="userSpaceOnUse" x1="356.8389" y1="272.6611" x2="716.9674" y2="272.6611">
	<stop  offset="0" style="stop-color:#00AEEF"/>
	<stop  offset="0.2145" style="stop-color:#0094D3"/>
	<stop  offset="0.6768" style="stop-color:#00609A"/>
	<stop  offset="1" style="stop-color:#003E76"/>
</linearGradient>
<polygon fill-rule="evenodd" clip-rule="evenodd" fill="url(#SVGID_5_)" points="144.572,272.925 151.921,260.504 159.378,248.083 
	174.414,247.87 189.478,247.761 197.136,260.08 204.851,272.398 197.359,284.819 190.01,297.344 174.866,297.454 159.854,297.562 
	152.201,285.244 "/>
<linearGradient id="SVGID_6_" gradientUnits="userSpaceOnUse" x1="356.8389" y1="273.1919" x2="716.9689" y2="273.1919">
	<stop  offset="0" style="stop-color:#00AEEF"/>
	<stop  offset="0.2145" style="stop-color:#0094D3"/>
	<stop  offset="0.6768" style="stop-color:#00609A"/>
	<stop  offset="1" style="stop-color:#003E76"/>
</linearGradient>
<polygon fill-rule="evenodd" clip-rule="evenodd" fill="url(#SVGID_6_)" points="384.572,273.458 389.718,264.75 394.943,256.045 
	405.451,255.835 416.011,255.726 421.322,264.435 426.69,272.925 421.545,281.634 416.291,290.446 405.754,290.549 395.224,290.658 
	389.941,282.058 "/>
<linearGradient id="SVGID_7_" gradientUnits="userSpaceOnUse" x1="356.8398" y1="273.1406" x2="716.9733" y2="273.1406">
	<stop  offset="0" style="stop-color:#00AEEF"/>
	<stop  offset="0.2145" style="stop-color:#0094D3"/>
	<stop  offset="0.6768" style="stop-color:#00609A"/>
	<stop  offset="1" style="stop-color:#003E76"/>
</linearGradient>
<polygon fill-rule="evenodd" clip-rule="evenodd" fill="url(#SVGID_7_)" points="257.5,273.67 268.764,254.666 280.108,235.764 
	302.939,235.552 325.941,235.237 337.566,253.92 349.196,272.713 337.875,291.614 326.64,310.618 303.666,310.83 280.778,311.043 
	269.096,292.359 "/>
<linearGradient id="SVGID_8_" gradientUnits="userSpaceOnUse" x1="356.8408" y1="198.7666" x2="716.9744" y2="198.7666">
	<stop  offset="0" style="stop-color:#00AEEF"/>
	<stop  offset="0.2145" style="stop-color:#0094D3"/>
	<stop  offset="0.6768" style="stop-color:#00609A"/>
	<stop  offset="1" style="stop-color:#003E76"/>
</linearGradient>
<polygon fill-rule="evenodd" clip-rule="evenodd" fill="url(#SVGID_8_)" points="95.55,199.135 104.296,184.486 113.018,169.83 
	130.653,169.618 148.344,169.515 157.369,183.953 166.31,198.391 157.65,213.047 148.899,227.697 131.212,227.909 113.437,228.018 
	104.525,213.574 "/>
<linearGradient id="SVGID_9_" gradientUnits="userSpaceOnUse" x1="356.8408" y1="198.7656" x2="716.9729" y2="198.7656">
	<stop  offset="0" style="stop-color:#00AEEF"/>
	<stop  offset="0.2145" style="stop-color:#0094D3"/>
	<stop  offset="0.6768" style="stop-color:#00609A"/>
	<stop  offset="1" style="stop-color:#003E76"/>
</linearGradient>
<polygon fill-rule="evenodd" clip-rule="evenodd" fill="url(#SVGID_9_)" points="23.029,199.032 28.702,189.476 34.322,179.919 
	45.888,179.919 57.433,179.707 63.299,189.155 69.085,198.5 63.5,208.056 57.712,217.614 46.254,217.717 34.682,217.825 
	28.901,208.372 "/>
<text transform="matrix(1.0633 0 0 1 659.7666 537.3633)" fill="#1C75BC" font-family="'UnitedKingdom'" font-size="278.2701">ERO</text>
<text transform="matrix(1.384 0 0 1 1096.0527 630.165)" fill="#1C75BC" font-family="'RoyalCrescent'" font-size="99.4108">HIVE</text>
</svg>
