<?xml version="1.0" encoding="utf-8"?>
<!-- Generator: Adobe Illustrator 16.0.0, SVG Export Plug-In . SVG Version: 6.00 Build 0)  -->
<!DOCTYPE svg PUBLIC "-//W3C//DTD SVG 1.1//EN" "http://www.w3.org/Graphics/SVG/1.1/DTD/svg11.dtd">
<svg version="1.1" id="Layer_1" xmlns="http://www.w3.org/2000/svg" xmlns:xlink="http://www.w3.org/1999/xlink" x="0px" y="0px"
	 width="100px" height="100px" viewBox="0 0 100 100" enable-background="new 0 0 100 100" xml:space="preserve">
<g>
	<path fill="#FFFFFF" d="M33.554,8.291v11.356h-8.646v-3.786h-8.645v3.786H11.94c-4.766,0-8.646,3.395-8.646,7.571v45.425
		c0,4.174,3.879,7.57,8.646,7.57h34.582v-7.57H11.94V27.218h77.809v37.854h8.646V27.218c0-4.176-3.88-7.571-8.646-7.571h-4.323
		v-3.786h-8.645v3.786h-8.646V8.291H33.554z M42.199,15.861H59.49v3.786H42.199V15.861z"/>
</g>
<g>
	<path fill="#FFFFFF" d="M88.165,95.296c1.473,0,2.664-1.362,2.664-3.045c0-1.676-1.191-3.043-2.664-3.043S85.5,90.575,85.5,92.251
		C85.5,93.934,86.692,95.296,88.165,95.296z"/>
	<path fill="#FFFFFF" d="M61.517,51.155c0,7.557,5.38,13.698,11.992,13.698c6.611,0,11.991-6.142,11.991-13.698
		c0-7.552-5.38-13.7-11.991-13.7C66.896,37.455,61.517,43.603,61.517,51.155z M80.17,51.155c0,4.197-2.986,7.609-6.661,7.609
		s-6.662-3.412-6.662-7.609c0-4.199,2.987-7.612,6.662-7.612S80.17,46.957,80.17,51.155z"/>
	<path fill="#FFFFFF" d="M56.188,83.119c0-5.035,3.586-9.133,7.995-9.133h18.653c2.352,0,4.451,1.188,5.917,3.045h6.276
		c-2.061-5.363-6.746-9.134-12.193-9.134H64.183c-7.348,0-13.325,6.832-13.325,15.222v9.132h23.983v-6.088H56.188V83.119z"/>
</g>
<path fill="#FFFFFF" d="M13.302,68.857h43.787V37.291H13.302V68.857z M19.557,43.606h31.276v10.381l-5.183-7.225l-6.793,9.463
	l-2.098,2.928l-0.239-0.333l-4.929-6.873l-4.933,6.873l-2.669,3.725h-4.432V43.606z"/>
</svg>
